<?xml version="1.0" encoding="utf-8"?><!-- Uploaded to: SVG Repo, www.svgrepo.com, Generator: SVG Repo Mixer Tools -->
<svg fill="#000000" width="800px" height="800px" viewBox="0 0 24 24" id="mcdonalds-circle" data-name="Flat Color" xmlns="http://www.w3.org/2000/svg" class="icon flat-color"><circle id="primary" cx="12" cy="12" r="10" style="fill: rgb(0, 0, 0);"></circle><path id="secondary" d="M16,16h0a1,1,0,0,1-1-1c.12-5.41-.79-6-.8-6C14,9,13,10.2,13,14a1,1,0,0,1-2,0c0-3.8-.95-5-1.22-5,0,0-.89.59-.77,6a1,1,0,0,1-1,1H8a1,1,0,0,1-1-1c-.12-5.29.71-6.75,1.33-7.4A2,2,0,0,1,9.78,7,2.52,2.52,0,0,1,12,8.56,2.52,2.52,0,0,1,14.22,7a2,2,0,0,1,1.44.62c.62.65,1.45,2.11,1.33,7.4A1,1,0,0,1,16,16Z" style="fill: rgb(44, 169, 188);"></path></svg>